:SAMPLES-PER-SECOND 30
:FULLY-SPECIFIED
:DEGREES
171
root  55.8639 38.8578 -18.5746 8.93854 20.2128 0.472778
RightUpLeg  -35.6322 -16.4817 2.58186
RightLeg  37.378 -11.6027 -9.64148
RightFoot  -5.93155 -0.167137 2.76709
RightToes  0.00048216 0.542163 -0.142577
Spine  45.9716 -2.72048 5.20641
Spine1  8.15695 -0.754783 0.427801
HEad  -12.0753 -2.34548 -0.383983
LeftShoulder1  9.13895 -17.8863 -36.5941
LeftArm  -9.55742 -48.1327 -31.7309
LeftForeArm  10.4825 -29.2318 -5.7721
LeftHand  -0.25398 0.0180481 5.50724
RightShoulder  4.78151 12.1875 24.3118
RightArm  -2.61796 36.6925 39.3645
RightForeArm  -27.795 32.3449 8.503
RightHand  -1.0087 7.82475 -9.27774
LeftUpLeg  -32.8116 34.24 -6.50906
LeftLeg  17.2686 1.33253 0.201633
LeftFoot  5.79679 -0.213504 1.18266
LeftToes  1.06248e-005 4.65856e-005 -8.18499e-006
172
root  56.5015 38.9872 -18.7695 11.1075 18.9615 0.665405
RightUpLeg  -37.3436 -22.2066 8.88038
RightLeg  30.7339 -10.503 -6.96774
RightFoot  -7.19905 -0.236704 5.15416
RightToes  0.00048216 0.542163 -0.142577
Spine  47.2002 -2.5902 5.17472
Spine1  8.04645 -0.342432 -0.379104
HEad  -14.5709 -3.68892 1.21479
LeftShoulder1  8.96596 -18.2433 -35.1272
LeftArm  -10.9403 -50.0919 -29.6775
LeftForeArm  9.88275 -27.4095 -5.37531
LeftHand  -0.25398 0.0180481 5.50724
RightShoulder  4.76577 12.616 23.3564
RightArm  -1.78156 40.334 40.3355
RightForeArm  -29.0966 29.3597 7.75246
RightHand  -1.33537 8.83825 -11.3249
LeftUpLeg  -33.7637 32.9866 -7.58292
LeftLeg  15.8926 3.65938 -0.490193
LeftFoot  6.10376 -0.31433 1.80867
LeftToes  1.06248e-005 4.65856e-005 -8.18499e-006
173
root  57.0342 39.0092 -18.919 13.3285 18.3328 1.28879
RightUpLeg  -38.5561 -25.545 13.6479
RightLeg  24.1358 -6.71097 -3.54263
RightFoot  -7.25351 -0.280075 6.42719
RightToes  0.00048216 0.542163 -0.142577
Spine  47.8947 -2.59796 5.11037
Spine1  8.73623 -0.214955 -0.956985
HEad  -17.5327 -5.03349 2.97983
LeftShoulder1  8.9279 -18.7998 -33.9369
LeftArm  -12.7868 -52.7007 -26.9526
LeftForeArm  8.98817 -24.8702 -4.85883
LeftHand  -0.25398 0.0180481 5.50724
RightShoulder  4.78678 13.2282 22.3349
RightArm  -1.92646 43.5801 40.5879
RightForeArm  -29.8756 26.5665 7.07263
RightHand  -1.63901 10.2012 -12.6449
LeftUpLeg  -35.0938 31.3596 -9.1968
LeftLeg  15.058 5.90392 -0.839769
LeftFoot  5.7335 -0.434159 2.66217
LeftToes  1.06248e-005 4.65856e-005 -8.18499e-006
174
root  57.4535 38.9579 -19.0573 15.2763 18.3478 1.98975
RightUpLeg  -38.9727 -24.1827 14.7335
RightLeg  19.4048 -6.12103 -1.74416
RightFoot  -5.50733 -0.0749454 1.06409
RightToes  0.00048216 0.542163 -0.142577
Spine  49.2988 -2.64202 5.33231
Spine1  8.83852 -0.215784 -0.860505
HEad  -20.4367 -6.55168 4.51112
LeftShoulder1  8.9923 -19.5198 -32.9614
LeftArm  -15.1822 -55.4804 -24.2787
LeftForeArm  8.13827 -21.7681 -4.51522
LeftHand  -0.25398 0.0180481 5.50724
RightShoulder  4.67802 13.3576 21.4157
RightArm  -2.3996 46.5849 40.2901
RightForeArm  -29.7784 24.1948 6.54986
RightHand  -1.8705 11.4798 -13.3132
LeftUpLeg  -36.7715 29.8826 -11.3098
LeftLeg  14.6539 7.11362 -0.701514
LeftFoot  5.32575 -0.605899 3.91159
LeftToes  1.06248e-005 4.65856e-005 -8.18499e-006
175
root  57.7973 38.8744 -19.1919 17.1631 18.6341 2.51526
RightUpLeg  -38.8706 -17.4442 10.7181
RightLeg  17.4932 -12.6466 -1.21411
RightFoot  -2.77899 0.527076 -7.27471
RightToes  0.00048216 0.542163 -0.142577
Spine  51.1766 -2.86776 6.03611
Spine1  8.37053 -0.178128 -0.649489
HEad  -23.3607 -8.05095 5.66473
LeftShoulder1  9.15865 -20.3733 -32.2445
LeftArm  -19.3888 -58.0019 -21.2719
LeftForeArm  8.26035 -19.0076 -4.80296
LeftHand  -0.25398 0.0180481 5.50724
RightShoulder  4.55694 13.3068 20.7362
RightArm  -3.69638 49.6649 39.1336
RightForeArm  -29.2002 22.1603 6.43411
RightHand  -2.07987 12.5608 -13.8903
LeftUpLeg  -38.8366 28.5095 -13.4364
LeftLeg  14.611 7.4634 -0.323239
LeftFoot  5.12677 -0.765664 5.07152
LeftToes  1.06248e-005 4.65856e-005 -8.18499e-006
176
root  58.1393 38.7761 -19.3125 19.3247 18.6 2.68382
RightUpLeg  -41.4664 -15.9481 10.3334
RightLeg  17.5109 -13.4185 -1.53152
RightFoot  -0.299311 1.1056 -11.5117
RightToes  0.00048216 0.542163 -0.142577
Spine  53.0024 -3.11174 7.15916
Spine1  7.4891 0.382602 -0.97083
HEad  -26.3671 -9.70791 6.61356
LeftShoulder1  9.54382 -21.6633 -31.7989
LeftArm  -24.0359 -59.9517 -17.9969
LeftForeArm  8.51798 -17.422 -4.98332
LeftHand  -0.25398 0.0180481 5.50724
RightShoulder  4.41631 13.0093 20.358
RightArm  -6.36097 52.6102 36.8775
RightForeArm  -28.4472 20.5948 6.70489
RightHand  -2.27862 13.4379 -14.4856
LeftUpLeg  -41.8058 27.9058 -15.9155
LeftLeg  15.0629 7.11102 0.136261
LeftFoot  4.57954 -0.86751 6.00143
LeftToes  1.06248e-005 4.65856e-005 -8.18499e-006
177
root  58.4914 38.6422 -19.4107 21.6602 18.1816 2.44272
RightUpLeg  -45.426 -18.2541 13.1978
RightLeg  18.1511 -9.67922 -1.59398
RightFoot  1.066 1.23966 -11.296
RightToes  0.00048216 0.542163 -0.142577
Spine  54.4384 -3.37402 8.62596
Spine1  6.63212 1.51633 -2.28877
HEad  -29.336 -11.5862 7.94211
LeftShoulder1  9.96295 -23.5252 -30.6762
LeftArm  -28.8131 -61.1997 -15.0957
LeftForeArm  9.12055 -16.7778 -4.81089
LeftHand  -0.25398 0.0180481 5.50724
RightShoulder  4.33969 12.3937 20.942
RightArm  -9.69863 55.404 33.2936
RightForeArm  -28.069 19.6457 6.93059
RightHand  -2.4214 14.0102 -14.9205
LeftUpLeg  -45.9593 28.5819 -19.3819
LeftLeg  16.0972 5.65168 0.696024
LeftFoot  3.49851 -0.93754 7.02959
LeftToes  1.06248e-005 4.65856e-005 -8.18499e-006
178
root  58.7905 38.4619 -19.4873 23.8709 17.8604 2.13802
RightUpLeg  -49.454 -20.2313 16.4969
RightLeg  18.9906 -6.23237 -1.55691
RightFoot  1.38149 1.23543 -10.9504
RightToes  0.00048216 0.542163 -0.142577
Spine  55.7548 -3.71706 9.07115
Spine1  6.32883 1.63033 -2.39314
HEad  -32.11 -11.7564 8.64984
LeftShoulder1  9.88398 -23.6569 -30.2011
LeftArm  -34.4341 -62.437 -10.3272
LeftForeArm  8.72616 -16.7837 -4.5435
LeftHand  -0.25398 0.0180481 5.50724
RightShoulder  4.18277 12.6671 19.428
RightArm  -13.8682 58.5836 31.6557
RightForeArm  -26.3591 18.3962 7.09778
RightHand  -2.48763 14.243 -15.1366
LeftUpLeg  -50.4174 29.2195 -23.0713
LeftLeg  17.5252 3.96944 1.3476
LeftFoot  2.47286 -1.0073 8.1735
LeftToes  1.06248e-005 4.65856e-005 -8.18499e-006
179
root  59.0017 38.2649 -19.5411 25.871 17.817 2.15997
RightUpLeg  -53.0586 -20.8979 18.5882
RightLeg  20.3292 -4.5659 -1.75812
RightFoot  1.28345 1.3381 -11.9618
RightToes  0.00048216 0.542163 -0.142577
Spine  57.1578 -3.98212 8.79045
Spine1  6.39236 1.00863 -1.40401
HEad  -34.4287 -11.1756 9.14122
LeftShoulder1  9.5027 -22.8335 -29.9083
LeftArm  -40.542 -63.5944 -4.84081
LeftForeArm  7.71666 -16.8089 -4.30459
LeftHand  -0.25398 0.0180481 5.50724
RightShoulder  3.94387 13.2864 16.8277
RightArm  -18.3195 61.8756 30.8574
RightForeArm  -24.171 16.9088 7.2102
RightHand  -2.50094 14.2709 -15.193
LeftUpLeg  -53.6369 28.1467 -24.966
LeftLeg  19.0391 4.08162 1.94086
LeftFoot  1.78209 -1.05056 9.01673
LeftToes  1.06248e-005 4.65856e-005 -8.18499e-006
180
root  59.1659 38.0705 -19.5618 27.713 17.7627 2.43179
RightUpLeg  -56.2984 -20.8937 19.5372
RightLeg  22.1715 -3.91046 -2.00896
RightFoot  1.03 1.35636 -12.3841
RightToes  0.00048216 0.542163 -0.142577
Spine  58.6576 -4.08273 8.88647
Spine1  6.11313 0.989351 -1.1253
HEad  -36.1624 -11.7105 10.2474
LeftShoulder1  9.44837 -23.2999 -29.0493
LeftArm  -45.5573 -64.1606 -1.11059
LeftForeArm  7.45243 -16.6822 -4.01013
LeftHand  -0.25398 0.0180481 5.50724
RightShoulder  3.83603 13.2071 16.2534
RightArm  -22.4556 64.4783 27.3306
RightForeArm  -23.4984 15.8643 7.33578
RightHand  -2.5108 14.3385 -15.2006
LeftUpLeg  -55.8884 26.2947 -25.5851
LeftLeg  20.6121 5.28398 2.52501
LeftFoot  0.981395 -1.02212 9.38898
LeftToes  1.06248e-005 4.65856e-005 -8.18499e-006
